<?xml version="1.0" encoding="UTF-8" standalone="no"?>
<svg
   xmlns:dc="http://purl.org/dc/elements/1.1/"
   xmlns:cc="http://creativecommons.org/ns#"
   xmlns:rdf="http://www.w3.org/1999/02/22-rdf-syntax-ns#"
   xmlns:svg="http://www.w3.org/2000/svg"
   xmlns="http://www.w3.org/2000/svg"
   viewBox="0 0 363.22668 377.78668"
   height="377.78668"
   width="363.22668"
   xml:space="preserve"
   id="svg2"
   version="1.1"><metadata
     id="metadata8"><rdf:RDF><cc:Work
         rdf:about=""><dc:format>image/svg+xml</dc:format><dc:type
           rdf:resource="http://purl.org/dc/dcmitype/StillImage" /></cc:Work></rdf:RDF></metadata><defs
     id="defs6" /><g
     transform="matrix(1.3333333,0,0,-1.3333333,0,377.78667)"
     id="g10"><g
       transform="scale(0.1)"
       id="g12"><path
         id="path14"
         style="fill:#dcd7ba;fill-opacity:1;fill-rule:nonzero;stroke:none"
         d="m 147.137,806.68 -10.184,24.129 c -7.488,-1.457 -14.609,-1.547 -21.387,-0.25 -6.781,1.312 -13.031,3.73 -18.7496,7.242 -5.7305,3.48 -10.7812,7.918 -15.1719,13.25 -4.3906,5.328 -7.9804,11.308 -10.7695,17.918 -5.082,12.082 -6.6406,24.269 -4.6719,36.613 1.9805,12.328 7.6914,23.887 17.1524,34.629 9.4492,10.75 22.8005,19.777 40.0505,27.059 17.258,7.269 33.039,10.531 47.34,9.82 14.301,-0.738 26.551,-4.692 36.77,-11.899 10.218,-7.191 17.871,-16.82 22.961,-28.882 2.796,-6.629 4.57,-13.348 5.32,-20.227 0.758,-6.871 0.387,-13.562 -1.094,-20.113 -1.469,-6.547 -4.09,-12.699 -7.859,-18.438 -3.75,-5.761 -8.809,-10.832 -15.149,-15.172 l 10.18,-24.148 c 9.48,6.148 17.219,13.309 23.211,21.488 5.98,8.192 10.269,17.02 12.879,26.531 2.601,9.489 3.488,19.301 2.68,29.391 -0.821,10.078 -3.34,20.16 -7.598,30.211 -7.172,17 -17.692,30.359 -31.582,40.109 -13.891,9.707 -30.09,15.149 -48.602,16.289 -18.519,1.12 -38.289,-2.75 -59.297,-11.621 -21.023,-8.867 -37.5894,-20.32 -49.7027,-34.371 -12.1094,-14.047 -19.5078,-29.437 -22.25,-46.187 -2.7188,-16.731 -0.4883,-33.59 6.6797,-50.602 4.2422,-10.058 9.6914,-18.89 16.3515,-26.519 6.6485,-7.629 14.3008,-13.809 22.9219,-18.59 8.6172,-4.781 17.9686,-7.84 28.0276,-9.258 10.07,-1.41 20.59,-0.871 31.543,1.598" /><path
         id="path16"
         style="fill:#dcd7ba;fill-opacity:1;fill-rule:nonzero;stroke:none"
         d="m 278.77,648.48 19.507,12.641 -52.968,81.949 61.398,39.68 56.641,-87.66 19.511,12.621 -70.863,109.641 -181.668,-117.411 71.77,-111.062 19.511,12.609 -57.562,89.071 61.75,39.902 52.973,-81.981" /><path
         id="path18"
         style="fill:#dcd7ba;fill-opacity:1;fill-rule:nonzero;stroke:none"
         d="m 461.563,548.34 c -2.641,-6.719 -7.18,-13 -13.629,-18.789 -6.442,-5.789 -13.043,-9.602 -19.813,-11.379 -6.777,-1.781 -13.789,-1.172 -21.039,1.808 -7.238,3.02 -14.73,8.809 -22.449,17.391 l -31.09,34.551 63.117,56.797 30.801,-34.219 c 7.832,-8.691 12.793,-16.879 14.91,-24.531 2.109,-7.668 1.84,-14.867 -0.808,-21.629 m 23.738,-9.309 c 3.953,10.551 4.441,21.801 1.441,33.699 -2.988,11.891 -10.129,24.122 -21.429,36.668 L 416.41,663.73 255.621,519.031 l 17.52,-19.461 62.812,56.52 31.66,-35.192 c 1.258,-1.398 2.539,-2.566 3.809,-3.867 l -32.418,-90.633 20.34,-22.617 33.617,96.02 c 2.832,-1.582 5.672,-2.903 8.512,-3.969 11.371,-4.262 22.461,-5.031 33.269,-2.312 10.821,2.73 20.961,8.351 30.442,16.871 9.457,8.531 16.179,18.078 20.117,28.64" /><path
         id="path20"
         style="fill:#dcd7ba;fill-opacity:1;fill-rule:nonzero;stroke:none"
         d="m 656.398,407.352 14.481,18.179 -126.902,101.071 -14.469,-18.172 53.199,-42.391 -120.301,-151 20.492,-16.32 120.309,151 53.191,-42.367" /><path
         id="path22"
         style="fill:#dcd7ba;fill-opacity:1;fill-rule:nonzero;stroke:none"
         d="m 715.27,399.371 -113.36,-184.23 22.309,-13.719 113.351,184.219 -22.3,13.73" /><path
         id="path24"
         style="fill:#dcd7ba;fill-opacity:1;fill-rule:nonzero;stroke:none"
         d="m 809.223,319.41 93.929,-43.48 9.77,21.101 -117.723,54.481 -90.859,-196.301 23.769,-11 40.641,87.801 85.121,-39.403 9.762,21.082 -85.121,39.399 30.711,66.32" /><path
         id="path26"
         style="fill:#dcd7ba;fill-opacity:1;fill-rule:nonzero;stroke:none"
         d="m 895.688,74.9609 24.859,-8.2304 68.058,205.3205 -24.859,8.238 -68.058,-205.3281" /><path
         id="path28"
         style="fill:#dcd7ba;fill-opacity:1;fill-rule:nonzero;stroke:none"
         d="m 1009.91,39.8594 129.6,-26.2696 4.62,22.7696 -103.93,21.0703 14.61,72.0503 95.66,-19.39 4.61,22.769 -95.65,19.403 14.53,71.617 102.27,-20.738 4.62,22.781 -127.95,25.949 -42.99,-212.0116" /><path
         id="path30"
         style="fill:#dcd7ba;fill-opacity:1;fill-rule:nonzero;stroke:none"
         d="m 1367.81,61.3398 c -6.09,-12.5781 -15.1,-22.1914 -27.03,-28.8007 -11.93,-6.5977 -26.84,-9.668 -44.71,-9.2188 l -38.86,0.9688 4.29,169.7929 41.8,-1.043 c 16.9,-0.418 30.92,-4.187 42.09,-11.258 11.16,-7.09 19.44,-17.011 24.82,-29.781 5.38,-12.789 7.86,-27.91 7.41,-45.359 -0.44,-17.6019 -3.71,-32.6918 -9.81,-45.3012 m -8.7,140.6012 c -14.71,8.989 -32.56,13.758 -53.53,14.278 l -69.69,1.761 -5.44,-216.24953 66.72,-1.6796887 C 1319.13,-0.5 1337.89,3.37109 1353.47,11.6797 c 15.55,8.3008 27.56,20.4687 35.99,36.4805 8.44,16.0195 12.94,35.3086 13.5,57.8518 0.56,22.359 -2.92,41.699 -10.47,57.98 -7.56,16.297 -18.69,28.938 -33.38,37.949" /><path
         id="path32"
         style="fill:#dcd7ba;fill-opacity:1;fill-rule:nonzero;stroke:none"
         d="m 1735.11,274.59 -24.93,-192.4298 -2.45,-0.6485 -117.17,154.6683 -30.22,-8.039 55.56,-209.0512 23.69,6.2813 -42.21,158.8479 2.04,0.519 107.54,-141.4685 22.87,6.0821 23.12,176.1994 2.04,0.551 42.21,-158.852 23.68,6.3086 -55.56,209.0434 -30.21,-8.012" /><path
         id="path34"
         style="fill:#dcd7ba;fill-opacity:1;fill-rule:nonzero;stroke:none"
         d="m 1934.27,147.969 -32.39,65.972 87.62,43.008 -10.23,20.86 -87.62,-42.989 -32.2,65.621 93.67,45.969 -10.23,20.86 -117.2,-57.508 95.3,-194.192 118.72,58.25 -10.25,20.86 -95.19,-46.711" /><path
         id="path36"
         style="fill:#dcd7ba;fill-opacity:1;fill-rule:nonzero;stroke:none"
         d="m 2136.01,501.93 49.44,-187.61 -2.02,-1.531 -166.81,99.07 -24.97,-18.839 130.27,-172.68 19.57,14.762 -98.98,131.207 1.69,1.273 152.94,-90.512 18.89,14.262 -45.01,171.898 1.68,1.282 98.98,-131.192 19.57,14.762 -130.29,172.68 -24.95,-18.832" /><path
         id="path38"
         style="fill:#dcd7ba;fill-opacity:1;fill-rule:nonzero;stroke:none"
         d="m 2403.33,498.781 -34.42,-38.941 -56.35,49.82 35.26,39.891 c 6.25,7.058 13.08,11.918 20.47,14.597 7.39,2.692 14.65,3.352 21.8,2.024 7.14,-1.32 13.45,-4.43 18.94,-9.262 7.12,-6.301 10.79,-14.359 10.99,-24.191 0.21,-9.809 -5.36,-21.117 -16.69,-33.938 m -161.67,73.551 32.74,37.039 c 9.51,10.77 18.96,16.41 28.32,16.961 9.38,0.566 17.62,-2.32 24.75,-8.602 5.69,-5.039 9.4,-10.832 11.13,-17.39 1.73,-6.551 1.63,-13.25 -0.27,-20.07 -1.9,-6.829 -5.45,-13.188 -10.68,-19.11 l -32.17,-36.398 z m 183.88,3.238 c -8.54,7.559 -17.27,12.262 -26.16,14.11 -8.9,1.84 -17.14,1.652 -24.74,-0.539 -7.59,-2.231 -13.74,-5.68 -18.44,-10.352 l -1.59,1.391 c 2.84,5.769 4.7,11.8 5.59,18.121 0.88,6.308 0.14,12.699 -2.22,19.168 -2.38,6.461 -7.04,12.769 -14.01,18.941 -7.91,6.988 -16.72,11.582 -26.39,13.738 -9.69,2.184 -19.71,1.313 -30.08,-2.597 -10.35,-3.91 -20.53,-11.5 -30.51,-22.789 l -50.08,-56.66 162.05,-143.27 51.77,58.559 c 11.29,12.781 18.55,24.82 21.8,36.148 3.25,11.313 3.26,21.691 0.03,31.109 -3.23,9.434 -8.9,17.75 -17.02,24.922" /><path
         id="path40"
         style="fill:#dcd7ba;fill-opacity:1;fill-rule:nonzero;stroke:none"
         d="m 2516.94,646.949 -62.34,38.961 51.7,82.77 -19.7,12.32 -51.72,-82.781 -61.98,38.722 55.29,88.508 -19.71,12.313 -69.17,-110.723 183.47,-114.598 70.05,112.161 -19.7,12.296 -56.19,-89.949" /><path
         id="path42"
         style="fill:#dcd7ba;fill-opacity:1;fill-rule:nonzero;stroke:none"
         d="m 2561.87,911.922 -18.01,-42.852 -78.28,32.899 17.84,42.461 c 4.53,10.761 9.81,18.761 15.84,23.922 6.04,5.168 12.66,8.007 19.9,8.488 7.22,0.469 14.83,-0.949 22.81,-4.32 7.99,-3.348 14.24,-7.719 18.74,-13.079 4.5,-5.382 6.94,-11.98 7.31,-19.812 0.37,-7.828 -1.67,-17.078 -6.15,-27.707 m 30.41,32.937 c -0.99,12.102 -5.02,22.461 -12.1,31.082 -7.06,8.618 -16.47,15.399 -28.23,20.348 -11.75,4.921 -23.23,6.931 -34.48,6.001 -11.22,-0.93 -21.6,-5.278 -31.08,-13.071 -9.49,-7.758 -17.52,-19.43 -24.07,-35.008 l -28.31,-67.391 199.42,-83.808 10.15,24.16 -77.9,32.738 18.33,43.61 c 0.74,1.75 1.25,3.402 1.89,5.101 l 95.81,9.289 11.79,28.059 -101.19,-10.489 c 0.22,3.231 0.21,6.36 -0.03,9.379" /><path
         id="path44"
         style="fill:#dcd7ba;fill-opacity:1;fill-rule:nonzero;stroke:none"
         d="m 140.625,1729.5 c 18.461,3.12 34.223,10.5 47.281,22.14 13.071,11.67 22.641,26.66 28.719,44.96 4.352,13.17 6.27,25.65 5.77,37.43 -0.508,11.77 -2.938,22.59 -7.27,32.45 -4.34,9.86 -10.109,18.48 -17.34,25.89 -7.23,7.39 -15.371,13.24 -24.418,17.49 l -14.762,-43.84 c 5.161,-2.83 9.442,-6.22 12.86,-10.21 3.43,-4 6,-8.42 7.672,-13.29 1.711,-4.86 2.488,-10.04 2.379,-15.53 -0.121,-5.48 -1.149,-11.13 -3.059,-16.95 -3.441,-10.38 -9.012,-18.64 -16.691,-24.85 -7.7,-6.21 -17.258,-9.85 -28.68,-10.92 -11.41,-1.07 -24.422,0.81 -39.0508,5.65 -14.2579,4.74 -25.6407,10.92 -34.1993,18.58 -8.5507,7.66 -14.1406,16.29 -16.7812,25.93 -2.6289,9.61 -2.1875,19.75 1.3516,30.37 1.9492,5.88 4.5898,11.07 7.9296,15.56 3.3399,4.5 7.2383,8.17 11.6602,11 4.418,2.84 9.2695,4.75 14.5391,5.74 5.2617,1.01 10.8593,0.97 16.8203,-0.12 l 14.5505,43.93 c -12.3513,2.52 -23.9802,2.85 -34.8513,0.91 -10.8672,-1.91 -20.8008,-5.76 -29.8086,-11.52 -9,-5.77 -16.8398,-13.21 -23.582,-22.29 -6.7266,-9.1 -12.04691,-19.58 -16.00004,-31.48 -5.968748,-18.05 -7.21875,-35.66 -3.75781,-52.84 3.46875,-17.16 11.66015,-32.57 24.57035,-46.19 12.9101,-13.63 30.5781,-24.15 52.9687,-31.57 22.3207,-7.42 42.7107,-9.55 61.1797,-6.43" /><path
         id="path46"
         style="fill:#dcd7ba;fill-opacity:1;fill-rule:nonzero;stroke:none"
         d="m 155.148,2101.36 c 5.52,9.59 12.661,16.61 21.469,21.06 8.793,4.45 18.883,6.03 30.25,4.76 11.352,-1.29 23.66,-5.73 36.91,-13.33 13.274,-7.59 23.301,-15.98 30.141,-25.14 6.84,-9.15 10.582,-18.67 11.172,-28.5 0.621,-9.85 -1.832,-19.57 -7.34,-29.14 -5.492,-9.6 -12.633,-16.62 -21.441,-21.09 -8.809,-4.43 -18.891,-6.02 -30.25,-4.74 -11.348,1.28 -23.668,5.71 -36.93,13.32 -13.25,7.6 -23.301,15.99 -30.121,25.13 -6.86,9.16 -10.578,18.67 -11.199,28.52 -0.59,9.85 1.851,19.56 7.339,29.15 m 10.93,-123.02 c 20.391,-11.7 39.981,-17.83 58.75,-18.36 18.77,-0.54 35.75,3.66 50.922,12.57 15.168,8.91 27.539,21.71 37.109,38.38 9.489,16.56 14.27,33.63 14.352,51.26 0.066,17.6 -4.863,34.39 -14.773,50.34 -9.95,15.96 -25.129,29.83 -45.59,41.55 -20.469,11.72 -40.09,17.84 -58.887,18.35 -18.773,0.5 -35.742,-3.72 -50.91,-12.69 -15.172,-8.95 -27.492,-21.72 -36.981,-38.27 -9.57,-16.66 -14.382,-33.79 -14.429,-51.37 -0.071,-17.59 4.867,-34.35 14.828,-50.28 9.941,-15.91 25.148,-29.76 45.609,-41.48" /><path
         id="path48"
         style="fill:#dcd7ba;fill-opacity:1;fill-rule:nonzero;stroke:none"
         d="m 388.301,2275.58 -27.492,22.78 -62.911,-76.01 27.512,-22.77 62.891,76" /><path
         id="path50"
         style="fill:#dcd7ba;fill-opacity:1;fill-rule:nonzero;stroke:none"
         d="m 436.188,2436.3 c 2.707,9.49 8.25,17.84 16.636,25.03 8.371,7.24 17.442,11.48 27.223,12.74 9.777,1.28 19.82,-0.59 30.098,-5.57 10.3,-4.99 20.429,-13.27 30.402,-24.83 9.98,-11.6 16.668,-22.83 20.078,-33.74 3.391,-10.93 3.75,-21.12 1.043,-30.6 -2.711,-9.49 -8.242,-17.84 -16.613,-25.06 -8.379,-7.2 -17.45,-11.45 -27.239,-12.73 -9.781,-1.26 -19.808,0.6 -30.109,5.59 -10.289,4.98 -20.41,13.25 -30.402,24.85 -9.957,11.56 -16.637,22.81 -20.047,33.72 -3.41,10.91 -3.762,21.12 -1.07,30.6 m -14,-94.6 c 15.359,-17.82 31.796,-30.1 49.296,-36.84 17.543,-6.74 34.934,-8.46 52.211,-5.09 17.27,3.37 33.192,11.31 47.75,23.86 14.473,12.45 24.653,26.98 30.582,43.55 5.938,16.59 6.879,34.05 2.828,52.42 -4.058,18.34 -13.789,36.44 -29.167,54.32 -15.411,17.87 -31.883,30.16 -49.43,36.9 -17.563,6.72 -34.961,8.37 -52.242,4.97 -17.27,-3.41 -33.141,-11.34 -47.61,-23.79 -14.57,-12.55 -24.801,-27.12 -30.699,-43.67 -5.902,-16.56 -6.801,-34 -2.73,-52.33 4.089,-18.32 13.82,-36.44 29.211,-54.3" /><path
         id="path52"
         style="fill:#dcd7ba;fill-opacity:1;fill-rule:nonzero;stroke:none"
         d="m 665.27,2612.23 c 7.699,4.41 14.789,6.77 21.281,7.06 6.5,0.28 12.32,-1.2 17.48,-4.46 5.168,-3.23 9.539,-7.99 13.11,-14.21 3.539,-6.16 5.437,-12.33 5.687,-18.48 0.262,-6.14 -1.359,-11.97 -4.797,-17.49 -3.453,-5.52 -8.992,-10.47 -16.621,-14.86 l -26.922,-15.48 -35.957,62.55 z m 62.449,-170.49 -34.957,60.81 33.316,19.15 c 14.41,8.29 25.172,18.01 32.281,29.15 7.11,11.16 10.621,23.04 10.5,35.66 -0.089,12.62 -3.718,25.14 -10.89,37.6 -7.149,12.45 -16.11,21.93 -26.879,28.46 -10.781,6.5 -22.738,9.61 -35.852,9.24 -13.109,-0.35 -26.789,-4.62 -41.008,-12.8 l -73.992,-42.54 107.832,-187.53 39.649,22.8" /><path
         id="path54"
         style="fill:#dcd7ba;fill-opacity:1;fill-rule:nonzero;stroke:none"
         d="m 1006.05,2568.11 -13.07,35.37 -94.23,-34.79 -17.891,48.45 86.813,32.05 -13.082,35.36 -86.789,-32.05 -17.86,48.37 93.829,34.64 -13.071,35.38 -136.73,-50.5 74.953,-202.93 137.128,50.65" /><path
         id="path56"
         style="fill:#dcd7ba;fill-opacity:1;fill-rule:nonzero;stroke:none"
         d="m 1099.32,2772.28 c 8.66,1.61 16.08,1.66 22.26,0.2 6.17,-1.48 11.12,-4.37 14.81,-8.7 3.7,-4.32 6.21,-10.04 7.52,-17.09 1.28,-6.99 0.99,-13.11 -0.95,-18.34 -1.95,-5.21 -5.54,-9.53 -10.78,-12.93 -5.24,-3.41 -12.16,-5.89 -20.73,-7.5 l -30.55,-5.65 -11.92,64.4 z m 2.22,-181.55 -13.95,75.4 32.83,6.06 54.24,-67.94 49.65,9.2 -60.49,74.34 c 0.61,0.41 1.3,0.75 1.88,1.17 10.53,7.54 17.89,16.93 22.11,28.21 4.23,11.26 5.03,23.96 2.43,38.09 -2.61,14.04 -7.87,25.75 -15.78,35.04 -7.92,9.32 -18.1,15.78 -30.55,19.4 -12.45,3.6 -26.71,3.92 -42.77,0.94 l -83.92,-15.53 39.35,-212.72 44.97,8.34" /><path
         id="path58"
         style="fill:#dcd7ba;fill-opacity:1;fill-rule:nonzero;stroke:none"
         d="m 1364.75,2783.71 25.96,-82.06 -54.9,0.41 27.25,81.66 z m -40.82,-117.27 78.1,-0.57 15.64,-49.45 49.02,-0.37 -72.95,216.87 -58.93,0.45 -76.3,-215.75 49.01,-0.37 16.41,49.19" /><path
         id="path60"
         style="fill:#dcd7ba;fill-opacity:1;fill-rule:nonzero;stroke:none"
         d="m 1538.19,2602.89 44.53,-7.71 30.57,175.96 65.26,-11.32 6.43,37.14 -175.03,30.4 -6.44,-37.15 65.24,-11.34 -30.56,-175.98" /><path
         id="path62"
         style="fill:#dcd7ba;fill-opacity:1;fill-rule:nonzero;stroke:none"
         d="m 1796.61,2762.72 -43.68,13.55 -64.03,-206.64 43.69,-13.52 64.02,206.61" /><path
         id="path64"
         style="fill:#dcd7ba;fill-opacity:1;fill-rule:nonzero;stroke:none"
         d="m 2053.85,2653.23 -45.85,21.64 -117.51,-126.29 -1.82,0.87 22.85,170.94 -45.94,21.68 -24.79,-227.5 53.32,-25.16 159.74,163.82" /><path
         id="path66"
         style="fill:#dcd7ba;fill-opacity:1;fill-rule:nonzero;stroke:none"
         d="m 2113.93,2349.31 21.97,30.63 -81.61,58.54 30.09,41.97 75.19,-53.93 21.99,30.64 -75.18,53.94 30.02,41.88 81.29,-58.29 21.97,30.61 -118.43,84.97 -126.1,-175.77 118.8,-85.19" /><path
         id="path68"
         style="fill:#dcd7ba;fill-opacity:1;fill-rule:nonzero;stroke:none"
         d="m 2271.1,2323.46 c 4.21,-6.92 7.42,-13.14 9.61,-18.64 2.22,-5.53 3.14,-10.46 2.8,-14.82 -0.33,-4.35 -2.23,-8.23 -5.68,-11.65 -3.68,-3.7 -8.08,-5.81 -13.15,-6.39 -5.09,-0.59 -10.45,0.37 -16.1,2.85 -5.63,2.48 -11.2,6.47 -16.65,11.96 -5.56,5.58 -9.67,11.46 -12.33,17.59 -2.68,6.12 -3.61,12.19 -2.79,18.23 0.81,6.02 3.62,11.76 8.41,17.23 l -31.2,31.38 c -10.79,-11.22 -17.37,-23.09 -19.75,-35.63 -2.38,-12.56 -0.91,-25.29 4.41,-38.24 5.31,-12.91 14.13,-25.59 26.43,-37.96 12.41,-12.5 24.9,-21.29 37.5,-26.42 12.57,-5.11 24.63,-6.61 36.2,-4.51 11.55,2.11 22.05,7.8 31.49,17.08 6.35,6.41 10.85,13.21 13.55,20.39 2.68,7.18 3.82,14.64 3.39,22.36 -0.42,7.71 -2.18,15.62 -5.24,23.69 -3.07,8.07 -7.16,16.21 -12.32,24.39 l -10.4,17.05 c -2.58,4.1 -4.8,8.15 -6.65,12.16 -1.86,4.02 -3.16,7.89 -3.93,11.6 -0.75,3.71 -0.74,7.22 0.04,10.52 0.79,3.31 2.59,6.28 5.44,8.91 3.3,3.28 7.19,5.26 11.71,5.9 4.5,0.66 9.31,-0.09 14.4,-2.28 5.1,-2.18 10.29,-5.92 15.54,-11.21 7.75,-7.79 12.2,-15.63 13.37,-23.49 1.17,-7.87 -0.97,-15.12 -6.41,-21.7 l 30.9,-31.11 c 9,9.23 14.6,19.67 16.83,31.32 2.22,11.64 1.04,23.66 -3.51,36.04 -4.57,12.39 -12.52,24.28 -23.83,35.68 -11.12,11.18 -23,19.23 -35.64,24.14 -12.63,4.93 -24.9,6.43 -36.82,4.56 -11.96,-1.88 -22.52,-7.46 -31.78,-16.74 -11.38,-11.23 -16.7,-23.9 -15.94,-38.05 0.76,-14.13 5.99,-29.25 15.69,-45.3 l 12.41,-20.89" /><path
         id="path70"
         style="fill:#dcd7ba;fill-opacity:1;fill-rule:nonzero;stroke:none"
         d="m 2373.18,2067.11 c 1.14,-14.93 6.26,-30.14 15.35,-45.62 9.08,-15.42 19.85,-27.25 32.35,-35.5 12.49,-8.26 25.73,-12.63 39.74,-13.1 14,-0.46 27.79,3.29 41.39,11.29 l 121.1,71.21 -23.18,39.42 -117.73,-69.22 c -7.12,-4.16 -14.34,-6.33 -21.71,-6.45 -7.35,-0.12 -14.28,1.73 -20.78,5.55 -6.5,3.83 -11.99,9.56 -16.49,17.2 -4.45,7.59 -6.79,15.16 -6.97,22.72 -0.21,7.57 1.53,14.53 5.21,20.92 3.69,6.36 9.09,11.64 16.18,15.82 l 117.73,69.22 -23.17,39.42 -121.1,-71.2 c -13.6,-7.99 -23.61,-18.22 -30.01,-30.65 -6.42,-12.42 -9.06,-26.11 -7.91,-41.03" /><path
         id="path72"
         style="fill:#dcd7ba;fill-opacity:1;fill-rule:nonzero;stroke:none"
         d="m 2475.07,1851.43 57.96,20.48 33.39,-12.06 -64.13,-85.5 18.24,-51.58 85.58,116.37 118.06,-43.41 -18.26,51.66 -115.86,41.64 -0.95,2.7 89.93,31.75 -15.25,43.15 -203.96,-72.08 15.25,-43.12" /><path
         id="path74"
         style="fill:#dcd7ba;fill-opacity:1;fill-rule:nonzero;stroke:none"
         d="m 1700.4,1374.78 c -21.99,-94.07 -116.43,-152.77 -210.36,-130.99 -68.14,15.91 -120.21,70.54 -132.6,139.19 -4.09,22.56 -25.72,37.6 -48.22,33.45 -22.59,-4.09 -37.56,-25.68 -33.48,-48.23 4.94,-27.18 14.06,-52.81 26.66,-76.27 -42.39,-43.48 -104.95,-62.31 -165.17,-48.34 -94.05,21.94 -152.726,116.33 -130.89,210.42 18.88,80.76 91.08,135.43 170.64,135.43 13.08,0 26.45,-1.48 39.73,-4.62 63.32,-14.75 112.95,-62.89 129.55,-125.53 5.86,-22.19 28.67,-35.39 50.74,-29.53 22.16,5.87 35.38,28.6 29.5,50.76 -5.25,19.8 -12.74,38.67 -22.21,56.24 42.77,43.82 105.17,62.26 165.12,48.3 94.11,-21.97 152.87,-116.32 130.99,-210.28 m 80.79,-18.87 c 32.29,138.52 -54.23,277.59 -192.89,309.95 -84.67,19.79 -172.45,-4.31 -235.04,-62.91 -32.41,30.25 -72.7,52.18 -117.69,62.69 -138.58,32.34 -277.687,-54.14 -310.058,-192.83 -32.239,-138.67 54.261,-277.76 192.878,-310.08 19.45,-4.5 39.08,-6.71 58.55,-6.71 65.32,0 128.57,24.85 176.5,69.69 32.4,-30.23 72.65,-52.27 117.75,-62.75 138.6,-32.21 277.65,54.33 310,192.95" /><path
         id="path76"
         style="fill:#dcd7ba;fill-opacity:1;fill-rule:nonzero;stroke:none"
         d="m 762.648,1589.58 h 0.25 c 31.442,-0.03 62.211,-8.45 89.059,-24.39 0.352,-0.21 0.68,-0.43 1.063,-0.6 5.527,-3.35 10.878,-7.02 16.07,-10.99 18.148,-13.88 44.219,-10.46 58.187,7.72 13.942,18.19 10.481,44.23 -7.711,58.16 -45.257,34.7 -99.347,53.03 -156.507,53.11 h -0.09 -0.129 -0.211 c -142.371,0 -258.141,-115.76 -258.141,-258.12 v -0.04 c 0,-142.36 115.77,-258.13 258.141,-258.13 h 0.211 0.078 c 0.051,0.01 0.109,0.01 0.141,0 57.16,0.06 111.25,18.44 156.507,53.1 18.192,13.92 21.653,39.99 7.711,58.19 -13.968,18.17 -40.039,21.64 -58.187,7.7 -5.192,-3.96 -10.543,-7.65 -16.07,-10.96 -0.383,-0.22 -0.711,-0.39 -1.063,-0.6 -26.848,-15.92 -57.617,-24.39 -89.059,-24.44 -0.058,0.03 -0.109,0.03 -0.121,0 -0.05,0.03 -0.129,0.03 -0.148,0 -96.57,0 -175.152,78.58 -175.16,175.15 0.008,96.59 78.59,175.14 175.179,175.14" /><path
         id="path78"
         style="fill:#dcd7ba;fill-opacity:1;fill-rule:nonzero;stroke:none"
         d="m 1830.43,1319.48 c -22.94,0 -41.5,-18.6 -41.5,-41.5 v -277.07 c 0,-22.898 18.56,-41.488 41.5,-41.488 22.91,0 41.49,18.59 41.49,41.488 v 170.41 c 22.81,-8.92 47.34,-15.01 73.29,-15.01 142.32,0 258.13,115.81 258.13,258.18 0,142.35 -115.81,258.11 -258.13,258.11 -57.32,0 -111.6,-18.36 -156.93,-53.1 -18.19,-13.93 -21.64,-39.97 -7.7,-58.16 13.93,-18.19 39.97,-21.67 58.18,-7.69 30.71,23.52 67.54,35.94 106.45,35.94 96.57,0 175.14,-78.54 175.14,-175.1 0,-96.61 -78.57,-175.19 -175.14,-175.19 -24.27,0 -49.25,10.58 -73.29,23.78 v 14.9 c 0,22.9 -18.58,41.5 -41.49,41.5" /></g></g></svg>
