<?xml version="1.0" encoding="UTF-8"?>
<svg id="Layer_1" data-name="Layer 1" xmlns="http://www.w3.org/2000/svg" viewBox="0 0 922.63 443.67">
  <defs>
    <style>
      .cls-1 {
        fill: #947fb7;
      }

      .cls-2 {
        fill: #e5e2ce;
      }

      .cls-3 {
        fill: #7aa79e;
      }

      .cls-4 {
        fill: #7aa79e;
      }
    </style>
  </defs>
  <rect class="cls-4" x="359.59" y="8.76" width="119.41" height="29.48"/>
  <path class="cls-2" d="M115.33,186.01V9.11h34.22v176.9h-34.22ZM138.73,186.01v-30.45h45.04c11.24,0,21.18-2.39,29.82-7.17,8.64-4.78,15.35-11.57,20.13-20.38,4.78-8.81,7.17-19.08,7.17-30.82s-2.43-21.64-7.29-30.19c-4.87-8.55-11.58-15.26-20.13-20.13-8.56-4.86-18.45-7.3-29.7-7.3h-45.79V9.11h46.3c13.09,0,25.25,2.18,36.49,6.54,11.24,4.36,20.97,10.53,29.19,18.49,8.22,7.97,14.6,17.32,19.12,28.06,4.53,10.74,6.79,22.48,6.79,35.23s-2.27,24.53-6.79,35.36c-4.53,10.82-10.9,20.22-19.12,28.18-8.22,7.97-17.91,14.14-29.06,18.49-11.16,4.36-23.19,6.54-36.11,6.54h-46.04Z"/>
  <rect class="cls-2" x="297.2" y="64.47" width="33.47" height="121.54"/>
  <path class="cls-2" d="M410.18,182.74c-10.91,0-20.72-2.64-29.45-7.92-8.72-5.29-15.56-12.54-20.51-21.77-4.95-9.22-7.42-19.54-7.42-30.95s2.47-21.64,7.42-30.7c4.95-9.06,11.78-16.23,20.51-21.51,8.72-5.28,18.53-7.93,29.45-7.93,8.89,0,16.86,1.72,23.9,5.16,7.05,3.44,12.54,8.26,16.48,14.47,3.94,6.21,6.08,13.42,6.41,21.64v38.25c-.34,8.22-2.51,15.39-6.54,21.51-4.02,6.13-9.52,10.95-16.48,14.47-6.96,3.52-14.89,5.28-23.77,5.28ZM411.69,239.86c-13.09,0-24.53-2.31-34.35-6.92-9.81-4.62-17.74-11.11-23.77-19.5l21.13-20.88c4.69,5.54,9.94,9.77,15.73,12.71,5.79,2.93,12.79,4.4,21.01,4.4,10.07,0,18.12-2.64,24.16-7.92,6.04-5.28,9.06-12.37,9.06-21.26v-30.7l5.28-26.67-5.03-26.67v-31.95h32.71v115.5c0,11.91-2.81,22.4-8.43,31.45-5.62,9.06-13.38,16.06-23.28,21.01-9.9,4.95-21.31,7.42-34.22,7.42ZM416.48,152.54c6.2,0,11.53-1.26,15.98-3.78,4.44-2.52,7.88-6.08,10.31-10.7,2.43-4.61,3.65-9.85,3.65-15.73s-1.22-11.11-3.65-15.73c-2.43-4.61-5.92-8.22-10.44-10.82-4.53-2.6-9.73-3.9-15.6-3.9s-11.29,1.3-15.73,3.9c-4.45,2.6-7.97,6.21-10.57,10.82-2.6,4.62-3.9,9.77-3.9,15.48s1.26,11.12,3.78,15.73c2.51,4.62,6.08,8.22,10.7,10.82,4.61,2.6,9.77,3.9,15.48,3.9Z"/>
  <rect class="cls-2" x="507.94" y="64.47" width="33.47" height="121.54"/>
  <path class="cls-2" d="M560.14,93.41v-28.94h89.83v28.94h-89.83ZM588.58,186.01V13.89h32.96v172.12h-32.96Z"/>
  <path class="cls-2" d="M716.98,188.53c-11.07,0-21.01-2.77-29.81-8.3-8.81-5.54-15.73-13.09-20.76-22.65-5.03-9.56-7.54-20.29-7.54-32.21s2.51-22.9,7.54-32.46c5.04-9.56,11.95-17.11,20.76-22.65,8.8-5.54,18.83-8.31,30.07-8.31,8.56,0,16.27,1.76,23.15,5.29,6.87,3.52,12.41,8.39,16.61,14.59,4.19,6.21,6.46,13.34,6.79,21.39v44.04c-.34,7.89-2.56,14.97-6.67,21.27-4.12,6.29-9.65,11.2-16.61,14.72-6.96,3.52-14.81,5.28-23.53,5.28ZM723.27,158.08c9.23,0,16.69-3.1,22.4-9.31,5.7-6.2,8.55-14.01,8.55-23.4,0-6.37-1.34-12.08-4.02-17.11-2.68-5.03-6.29-8.93-10.82-11.7-4.53-2.77-9.9-4.15-16.11-4.15s-11.37,1.43-15.98,4.28c-4.61,2.86-8.22,6.71-10.82,11.58-2.6,4.87-3.9,10.48-3.9,16.86s1.3,12.25,3.9,17.11c2.6,4.87,6.25,8.72,10.95,11.57,4.69,2.86,9.98,4.28,15.85,4.28ZM752.21,186.01v-32.71l5.54-29.69-5.54-29.44v-29.69h33.22v121.54h-33.22Z"/>
  <path class="cls-2" d="M812.79,186.01V4.08h32.97v181.93h-32.97Z"/>
  <path class="cls-1" d="M524.67,245.78c-5.37,0-9.81-1.8-13.34-5.41-3.52-3.61-5.28-8.09-5.28-13.46s1.76-9.65,5.28-13.34c3.53-3.69,7.97-5.54,13.34-5.54s10.03,1.85,13.47,5.54c3.43,3.69,5.15,8.14,5.15,13.34s-1.72,9.86-5.15,13.46c-3.44,3.61-7.93,5.41-13.47,5.41Z"/>
  <g>
    <path class="cls-1" d="M313.93,42.37c-5.37,0-9.81-1.8-13.34-5.41-3.52-3.61-5.28-8.09-5.28-13.46s1.76-9.65,5.28-13.34c3.53-3.69,7.97-5.54,13.34-5.54s10.03,1.85,13.47,5.54c3.43,3.69,5.15,8.14,5.15,13.34s-1.72,9.86-5.15,13.46c-3.44,3.61-7.93,5.41-13.47,5.41Z"/>
    <path class="cls-1" d="M524.67,42.37c-5.37,0-9.81-1.8-13.34-5.41-3.52-3.61-5.28-8.09-5.28-13.46s1.76-9.65,5.28-13.34c3.53-3.69,7.97-5.54,13.34-5.54s10.03,1.85,13.47,5.54c3.43,3.69,5.15,8.14,5.15,13.34s-1.72,9.86-5.15,13.46c-3.44,3.61-7.93,5.41-13.47,5.41Z"/>
  </g>
  <g>
    <path class="cls-2" d="M159.55,391.46c-14.09,0-26.21-2.43-36.36-7.3-10.15-4.86-19.33-12.24-27.55-22.14l22.64-22.64c5.37,6.88,11.45,12.2,18.25,15.98,6.79,3.77,15.14,5.66,25.03,5.66,8.89,0,15.94-1.76,21.14-5.29,5.2-3.52,7.8-8.39,7.8-14.59,0-5.37-1.51-9.73-4.53-13.09-3.02-3.35-7.01-6.16-11.95-8.43-4.95-2.26-10.4-4.36-16.35-6.29-5.96-1.93-11.88-4.15-17.74-6.67-5.87-2.52-11.32-5.7-16.36-9.56-5.03-3.86-9.02-8.72-11.95-14.59-2.94-5.87-4.4-13.42-4.4-22.65,0-10.73,2.6-19.88,7.8-27.43,5.2-7.55,12.33-13.34,21.39-17.36,9.06-4.03,19.29-6.04,30.7-6.04,12.08,0,23.02,2.26,32.84,6.79,9.81,4.53,17.74,10.4,23.78,17.61l-22.65,22.65c-5.2-5.7-10.53-9.9-15.98-12.58-5.45-2.68-11.62-4.03-18.49-4.03-7.89,0-14.09,1.55-18.62,4.66-4.53,3.11-6.79,7.42-6.79,12.96,0,4.87,1.51,8.77,4.53,11.7,3.02,2.94,7,5.54,11.95,7.8,4.95,2.26,10.44,4.4,16.48,6.42,6.04,2.01,11.99,4.32,17.87,6.92,5.87,2.6,11.28,5.88,16.23,9.81,4.95,3.94,8.93,9.06,11.95,15.35,3.02,6.29,4.53,14.05,4.53,23.28,0,16.44-5.79,29.4-17.36,38.88-11.57,9.48-27.52,14.22-47.81,14.22Z"/>
    <path class="cls-2" d="M301.6,391.46c-12.25,0-23.28-2.81-33.09-8.43-9.82-5.62-17.58-13.25-23.28-22.9-5.71-9.65-8.56-20.51-8.56-32.59s2.85-22.6,8.56-32.08c5.7-9.48,13.46-17.03,23.28-22.65,9.81-5.62,20.84-8.43,33.09-8.43s23.53,2.77,33.34,8.3c9.82,5.54,17.61,13.09,23.4,22.65,5.79,9.56,8.68,20.3,8.68,32.21s-2.85,22.73-8.55,32.46c-5.71,9.73-13.51,17.41-23.4,23.03-9.9,5.62-21.06,8.43-33.47,8.43ZM301.6,360.51c6.2,0,11.7-1.42,16.48-4.28,4.78-2.85,8.47-6.71,11.07-11.57,2.6-4.86,3.9-10.48,3.9-16.86s-1.38-11.99-4.15-16.86c-2.77-4.87-6.46-8.68-11.07-11.45-4.62-2.77-10.03-4.15-16.23-4.15s-11.41,1.38-16.11,4.15c-4.69,2.77-8.34,6.59-10.94,11.45-2.6,4.87-3.9,10.48-3.9,16.86s1.3,12,3.9,16.86c2.6,4.87,6.25,8.72,10.94,11.57,4.7,2.86,10.07,4.28,16.11,4.28Z"/>
    <path class="cls-2" d="M443.38,391.46c-12.24,0-23.31-2.81-33.21-8.43-9.9-5.62-17.71-13.25-23.41-22.9-5.7-9.65-8.55-20.34-8.55-32.08s2.85-22.94,8.55-32.58c5.7-9.65,13.5-17.24,23.41-22.77,9.9-5.54,21.05-8.3,33.46-8.3,9.57,0,18.37,1.72,26.42,5.16,8.05,3.44,15.1,8.51,21.14,15.22l-21.64,21.64c-3.02-3.69-6.75-6.46-11.2-8.3-4.44-1.85-9.35-2.77-14.72-2.77-6.04,0-11.45,1.38-16.23,4.15-4.78,2.77-8.51,6.59-11.19,11.45-2.68,4.87-4.03,10.48-4.03,16.86s1.35,12,4.03,16.86c2.68,4.87,6.41,8.72,11.19,11.57,4.79,2.86,10.19,4.28,16.23,4.28,5.54,0,10.49-.96,14.85-2.89,4.36-1.93,8.22-4.74,11.57-8.43l21.14,21.39c-5.87,6.71-12.88,11.87-21.01,15.48-8.14,3.61-17.07,5.41-26.8,5.41Z"/>
    <rect class="cls-2" x="507.94" y="267.16" width="33.47" height="121.54"/>
    <path class="cls-2" d="M628.59,391.46c-12.75,0-24.12-2.77-34.1-8.3-9.98-5.54-17.83-13.09-23.53-22.65-5.7-9.56-8.55-20.46-8.55-32.71s2.81-22.9,8.43-32.46c5.62-9.56,13.29-17.11,23.03-22.65,9.72-5.54,20.63-8.3,32.71-8.3,11.4,0,21.64,2.6,30.7,7.8,9.06,5.2,16.1,12.42,21.13,21.64,5.03,9.23,7.55,19.71,7.55,31.45,0,2.18-.09,4.4-.25,6.67-.17,2.26-.59,4.74-1.26,7.42l-102.41.25v-24.66l87.06-.25-13.59,10.31c-.17-7.21-1.43-13.25-3.77-18.12-2.35-4.86-5.63-8.55-9.82-11.07-4.2-2.52-9.4-3.78-15.6-3.78-6.54,0-12.25,1.43-17.12,4.28-4.87,2.86-8.59,6.92-11.19,12.2-2.6,5.29-3.9,11.54-3.9,18.75s1.38,13.8,4.15,19.25c2.76,5.46,6.75,9.61,11.95,12.46,5.2,2.86,11.24,4.28,18.12,4.28,6.2,0,11.83-1.01,16.86-3.02,5.03-2.01,9.39-5.2,13.08-9.56l19.63,19.63c-6.2,7.05-13.5,12.33-21.89,15.85-8.39,3.52-17.53,5.28-27.43,5.28Z"/>
    <path class="cls-2" d="M691.65,296.09v-28.94h89.83v28.94h-89.83ZM720.08,388.69v-172.12h32.97v172.12h-32.97Z"/>
    <path class="cls-2" d="M841.41,389.7l-51.08-122.54h36.23l33.47,93.61h-12.08l34.97-93.61h36.23l-54.35,122.54h-23.4ZM807.44,439.78l37.24-78.51,20.13,28.43-22.14,50.07h-35.23Z"/>
  </g>
  <g>
    <path class="cls-3" d="M70.76,388.86H8.38v-8.52l40.46-25.3v4.88l-40.46-25.2v-8.52h62.38v12.07H29.15l.61-2.4,28.22,17.48v8.34l-28.22,17.39-.61-2.31h41.61v12.07Z"/>
    <path class="cls-3" d="M70.76,318.14l-62.38-25.2v-9.94l62.38-24.93v12.87l-51.11,19.34v-4.44l51.11,19.52v12.78ZM59.14,304.74h-10.12v-33.54h10.12v33.54Z"/>
    <path class="cls-3" d="M70.76,241.73h-10.73v-15.88c0-3.96-.85-7.47-2.54-10.52-1.69-3.04-4.08-5.41-7.18-7.1-3.1-1.69-6.73-2.53-10.87-2.53s-7.63.86-10.65,2.58c-3.01,1.72-5.37,4.08-7.09,7.1-1.72,3.02-2.58,6.51-2.58,10.47v16.15h-10.74v-16.32c0-4.62.77-8.9,2.31-12.87,1.54-3.96,3.71-7.39,6.52-10.29,2.82-2.9,6.11-5.15,9.89-6.74,3.8-1.6,7.93-2.39,12.43-2.39s8.65.8,12.46,2.39c3.81,1.59,7.13,3.84,9.94,6.74,2.8,2.9,4.98,6.31,6.52,10.25,1.54,3.93,2.3,8.18,2.3,12.73v16.24ZM70.76,249.99H8.38v-12.07h62.38v12.07Z"/>
    <path class="cls-3" d="M19.03,174.83h-10.65v-34.08h10.65v34.08ZM70.76,183.7H8.38v-12.07h62.38v12.07ZM44.15,174.83h-10.38v-31.5h10.38v31.5ZM70.76,174.83h-10.64v-34.52h10.64v34.52Z"/>
    <path class="cls-3" d="M70.76,104.11h-9.85v-16.33c0-2.84-.88-5.07-2.66-6.7-1.77-1.63-3.88-2.44-6.3-2.44-1.65,0-3.15.35-4.47,1.06-1.34.71-2.41,1.77-3.25,3.19-.82,1.43-1.24,3.11-1.24,5.07v16.15h-9.76v-14.82c0-2.54-.62-4.56-1.86-6.03-1.24-1.48-3.11-2.22-5.59-2.22s-4.44.76-5.68,2.26c-1.24,1.51-1.87,3.47-1.87,5.9v14.91h-9.85v-16.42c0-4.08.76-7.52,2.26-10.3,1.5-2.78,3.49-4.89,5.95-6.34,2.46-1.45,5.14-2.17,8.03-2.17,3.55,0,6.61,1.08,9.19,3.24,2.58,2.16,4.51,5.34,5.81,9.54l-3.99-.54c1.3-4.67,3.45-8.28,6.43-10.82,2.99-2.54,6.59-3.81,10.79-3.81,3.32,0,6.32.83,9,2.48,2.69,1.65,4.85,4.04,6.48,7.15,1.64,3.1,2.44,6.85,2.44,11.23v16.77ZM70.76,112.98H8.38v-11.98h62.38v11.98Z"/>
    <path class="cls-3" d="M46.71,37.73L8.38,61.87v-14.02l30.79-18.73v7.99L8.38,18.38V4.63l38.33,24.41v8.7ZM70.76,39.23h-30.43v-12.07h30.43v12.07Z"/>
  </g>
</svg>