<?xml version="1.0" encoding="UTF-8"?>
<svg id="Layer_1" xmlns="http://www.w3.org/2000/svg" version="1.1" viewBox="0 0 823.5 467.8">
  <!-- Generator: Adobe Illustrator 30.5.0, SVG Export Plug-In . SVG Version: 2.1.4 Build 167)  -->
  <defs>
    <style>
      .st0 {
        fill: #947fb7;
      }

      .st1 {
        fill: #e5e2ce;
      }

      .st2 {
        fill: #7aa79e;
      }
    </style>
  </defs>
  <rect class="st2" x="264" y="4.7" width="119.4" height="29.5"/>
  <path class="st1" d="M19.7,181.9V5h34.2v176.9H19.7ZM43.1,181.9v-30.4h45c11.2,0,21.2-2.4,29.8-7.2s15.4-11.6,20.1-20.4c4.8-8.8,7.2-19.1,7.2-30.8s-2.4-21.6-7.3-30.2c-4.9-8.5-11.6-15.3-20.1-20.1-8.6-4.9-18.5-7.3-29.7-7.3h-45.8V5h46.3c13.1,0,25.2,2.2,36.5,6.5,11.2,4.4,21,10.5,29.2,18.5,8.2,8,14.6,17.3,19.1,28.1,4.5,10.7,6.8,22.5,6.8,35.2s-2.3,24.5-6.8,35.4c-4.5,10.8-10.9,20.2-19.1,28.2-8.2,8-17.9,14.1-29.1,18.5-11.2,4.4-23.2,6.5-36.1,6.5h-46.1Z"/>
  <rect class="st1" x="201.6" y="60.4" width="33.5" height="121.5"/>
  <path class="st1" d="M314.5,178.7c-10.9,0-20.7-2.6-29.5-7.9-8.7-5.3-15.6-12.5-20.5-21.8-5-9.2-7.4-19.5-7.4-30.9s2.5-21.6,7.4-30.7,11.8-16.2,20.5-21.5c8.7-5.3,18.5-7.9,29.5-7.9s16.9,1.7,23.9,5.2c7,3.4,12.5,8.3,16.5,14.5s6.1,13.4,6.4,21.6v38.2c-.3,8.2-2.5,15.4-6.5,21.5-4,6.1-9.5,10.9-16.5,14.5-7,3.5-14.9,5.3-23.8,5.3ZM316,235.8c-13.1,0-24.5-2.3-34.4-6.9-9.8-4.6-17.7-11.1-23.8-19.5l21.1-20.9c4.7,5.5,9.9,9.8,15.7,12.7,5.8,2.9,12.8,4.4,21,4.4s18.1-2.6,24.2-7.9,9.1-12.4,9.1-21.3v-30.7l5.3-26.7-5-26.7v-31.9h32.7v115.5c0,11.9-2.8,22.4-8.4,31.4-5.6,9.1-13.4,16.1-23.3,21s-21.3,7.4-34.2,7.4h0ZM320.8,148.5c6.2,0,11.5-1.3,16-3.8,4.4-2.5,7.9-6.1,10.3-10.7,2.4-4.6,3.6-9.9,3.6-15.7s-1.2-11.1-3.6-15.7c-2.4-4.6-5.9-8.2-10.4-10.8-4.5-2.6-9.7-3.9-15.6-3.9s-11.3,1.3-15.7,3.9c-4.5,2.6-8,6.2-10.6,10.8-2.6,4.6-3.9,9.8-3.9,15.5s1.3,11.1,3.8,15.7c2.5,4.6,6.1,8.2,10.7,10.8,4.6,2.6,9.8,3.9,15.5,3.9h0Z"/>
  <rect class="st1" x="412.3" y="60.4" width="33.5" height="121.5"/>
  <path class="st1" d="M464.5,89.3v-28.9h89.8v28.9h-89.8ZM492.9,181.9V9.8h33v172.1h-33Z"/>
  <path class="st1" d="M621.3,184.4c-11.1,0-21-2.8-29.8-8.3-8.8-5.5-15.7-13.1-20.8-22.6s-7.5-20.3-7.5-32.2,2.5-22.9,7.5-32.5c5-9.6,12-17.1,20.8-22.7,8.8-5.5,18.8-8.3,30.1-8.3s16.3,1.8,23.2,5.3c6.9,3.5,12.4,8.4,16.6,14.6,4.2,6.2,6.5,13.3,6.8,21.4v44c-.3,7.9-2.6,15-6.7,21.3-4.1,6.3-9.7,11.2-16.6,14.7-7,3.5-14.8,5.3-23.5,5.3h0ZM627.6,154c9.2,0,16.7-3.1,22.4-9.3,5.7-6.2,8.5-14,8.5-23.4s-1.3-12.1-4-17.1-6.3-8.9-10.8-11.7-9.9-4.2-16.1-4.2-11.4,1.4-16,4.3c-4.6,2.9-8.2,6.7-10.8,11.6-2.6,4.9-3.9,10.5-3.9,16.9s1.3,12.2,3.9,17.1c2.6,4.9,6.2,8.7,11,11.6,4.7,2.9,10,4.3,15.8,4.3h0ZM656.6,181.9v-32.7l5.5-29.7-5.5-29.4v-29.7h33.2v121.5h-33.2Z"/>
  <path class="st1" d="M717.1,181.9V0h33v181.9h-33Z"/>
  <path class="st0" d="M429,241.7c-5.4,0-9.8-1.8-13.3-5.4-3.5-3.6-5.3-8.1-5.3-13.5s1.8-9.6,5.3-13.3c3.5-3.7,8-5.5,13.3-5.5s10,1.9,13.5,5.5c3.4,3.7,5.1,8.1,5.1,13.3s-1.7,9.9-5.1,13.5c-3.4,3.6-7.9,5.4-13.5,5.4Z"/>
  <g>
    <path class="st0" d="M218.3,38.3c-5.4,0-9.8-1.8-13.3-5.4-3.5-3.6-5.3-8.1-5.3-13.5s1.8-9.6,5.3-13.3c3.5-3.7,8-5.5,13.3-5.5s10,1.8,13.5,5.5c3.4,3.7,5.1,8.1,5.1,13.3s-1.7,9.9-5.1,13.5c-3.4,3.6-7.9,5.4-13.5,5.4Z"/>
    <path class="st0" d="M429,38.3c-5.4,0-9.8-1.8-13.3-5.4-3.5-3.6-5.3-8.1-5.3-13.5s1.8-9.6,5.3-13.3c3.5-3.7,8-5.5,13.3-5.5s10,1.8,13.5,5.5c3.4,3.7,5.1,8.1,5.1,13.3s-1.7,9.9-5.1,13.5c-3.4,3.6-7.9,5.4-13.5,5.4Z"/>
  </g>
  <path class="st1" d="M63.9,387.4c-14.1,0-26.2-2.4-36.4-7.3-10.1-4.9-19.3-12.2-27.5-22.1l22.6-22.6c5.4,6.9,11.5,12.2,18.2,16,6.8,3.8,15.1,5.7,25,5.7s15.9-1.8,21.1-5.3c5.2-3.5,7.8-8.4,7.8-14.6s-1.5-9.7-4.5-13.1c-3-3.4-7-6.2-11.9-8.4-4.9-2.3-10.4-4.4-16.3-6.3-6-1.9-11.9-4.1-17.7-6.7-5.9-2.5-11.3-5.7-16.4-9.6-5-3.9-9-8.7-12-14.6-2.9-5.9-4.4-13.4-4.4-22.6s2.6-19.9,7.8-27.4c5.2-7.6,12.3-13.3,21.4-17.4,9.1-4,19.3-6,30.7-6s23,2.3,32.8,6.8c9.8,4.5,17.7,10.4,23.8,17.6l-22.7,22.6c-5.2-5.7-10.5-9.9-16-12.6-5.4-2.7-11.6-4-18.5-4s-14.1,1.6-18.6,4.7c-4.5,3.1-6.8,7.4-6.8,13s1.5,8.8,4.5,11.7c3,2.9,7,5.5,11.9,7.8,4.9,2.3,10.4,4.4,16.5,6.4,6,2,12,4.3,17.9,6.9,5.9,2.6,11.3,5.9,16.2,9.8,4.9,3.9,8.9,9.1,11.9,15.4,3,6.3,4.5,14,4.5,23.3,0,16.4-5.8,29.4-17.4,38.9s-27.5,14.2-47.8,14.2h0Z"/>
  <path class="st1" d="M206,387.4c-12.2,0-23.3-2.8-33.1-8.4-9.8-5.6-17.6-13.2-23.3-22.9-5.7-9.6-8.6-20.5-8.6-32.6s2.9-22.6,8.6-32.1c5.7-9.5,13.5-17,23.3-22.6,9.8-5.6,20.8-8.4,33.1-8.4s23.5,2.8,33.3,8.3c9.8,5.5,17.6,13.1,23.4,22.6s8.7,20.3,8.7,32.2-2.9,22.7-8.5,32.5c-5.7,9.7-13.5,17.4-23.4,23-9.9,5.6-21.1,8.4-33.5,8.4ZM206,356.4c6.2,0,11.7-1.4,16.5-4.3,4.8-2.9,8.5-6.7,11.1-11.6,2.6-4.9,3.9-10.5,3.9-16.9s-1.4-12-4.1-16.9c-2.8-4.9-6.5-8.7-11.1-11.5-4.6-2.8-10-4.1-16.2-4.1s-11.4,1.4-16.1,4.1c-4.7,2.8-8.3,6.6-10.9,11.5-2.6,4.9-3.9,10.5-3.9,16.9s1.3,12,3.9,16.9c2.6,4.9,6.2,8.7,10.9,11.6,4.7,2.9,10.1,4.3,16.1,4.3h0Z"/>
  <path class="st1" d="M347.8,387.4c-12.2,0-23.3-2.8-33.2-8.4s-17.7-13.2-23.4-22.9-8.5-20.3-8.5-32.1,2.9-22.9,8.5-32.6c5.7-9.6,13.5-17.2,23.4-22.8,9.9-5.5,21-8.3,33.5-8.3s18.4,1.7,26.4,5.2c8,3.4,15.1,8.5,21.1,15.2l-21.6,21.6c-3-3.7-6.8-6.5-11.2-8.3-4.4-1.9-9.4-2.8-14.7-2.8s-11.5,1.4-16.2,4.1-8.5,6.6-11.2,11.5c-2.7,4.9-4,10.5-4,16.9s1.4,12,4,16.9c2.7,4.9,6.4,8.7,11.2,11.6,4.8,2.9,10.2,4.3,16.2,4.3s10.5-1,14.9-2.9c4.4-1.9,8.2-4.7,11.6-8.4l21.1,21.4c-5.9,6.7-12.9,11.9-21,15.5-8.1,3.6-17.1,5.4-26.8,5.4h0Z"/>
  <rect class="st1" x="412.3" y="263.1" width="33.5" height="121.5"/>
  <path class="st0" d="M429,408.4c5.4,0,9.8,1.8,13.3,5.4,3.5,3.6,5.3,8.1,5.3,13.5s-1.8,9.6-5.3,13.3c-3.5,3.7-8,5.5-13.3,5.5s-10-1.9-13.5-5.5c-3.4-3.7-5.1-8.1-5.1-13.3s1.7-9.9,5.1-13.5c3.4-3.6,7.9-5.4,13.5-5.4Z"/>
  <path class="st1" d="M533,387.4c-12.8,0-24.1-2.8-34.1-8.3-10-5.5-17.8-13.1-23.5-22.6s-8.5-20.5-8.5-32.7,2.8-22.9,8.4-32.5,13.3-17.1,23-22.6c9.7-5.5,20.6-8.3,32.7-8.3s21.6,2.6,30.7,7.8c9.1,5.2,16.1,12.4,21.1,21.6,5,9.2,7.5,19.7,7.5,31.5s0,4.4-.2,6.7c-.2,2.3-.6,4.7-1.3,7.4l-102.4.2v-24.7l87.1-.2-13.6,10.3c-.2-7.2-1.4-13.2-3.8-18.1-2.3-4.9-5.6-8.5-9.8-11.1-4.2-2.5-9.4-3.8-15.6-3.8s-12.2,1.4-17.1,4.3c-4.9,2.9-8.6,6.9-11.2,12.2-2.6,5.3-3.9,11.5-3.9,18.8s1.4,13.8,4.1,19.2c2.8,5.5,6.8,9.6,12,12.5,5.2,2.9,11.2,4.3,18.1,4.3s11.8-1,16.9-3c5-2,9.4-5.2,13.1-9.6l19.6,19.6c-6.2,7-13.5,12.3-21.9,15.9-8.4,3.5-17.5,5.3-27.4,5.3h0Z"/>
  <path class="st1" d="M596,292v-28.9h89.8v28.9h-89.8ZM624.5,384.6v-172.1h33v172.1h-33Z"/>
  <path class="st1" d="M745.8,385.6l-51.1-122.5h36.2l33.5,93.6h-12.1l35-93.6h36.2l-54.3,122.5h-23.4,0ZM711.8,435.7l37.2-78.5,20.1,28.4-22.1,50.1h-35.2Z"/>
  <g>
    <path class="st1" d="M495.8,451.3c-4.1,0-7.8-1-11.2-2.9-3.3-1.9-5.9-4.5-7.9-7.8-1.9-3.3-2.9-7-2.9-11s1-7.8,2.9-11.1c1.9-3.3,4.5-5.9,7.9-7.8,3.3-1.9,7-2.9,11.2-2.9s6.3.6,9.1,1.9c2.8,1.2,5.2,3,7.2,5.3l-6.2,6.3c-1.2-1.5-2.7-2.5-4.4-3.3-1.7-.7-3.6-1.1-5.6-1.1s-4.5.5-6.3,1.6c-1.8,1.1-3.2,2.5-4.2,4.4s-1.5,4-1.5,6.5.5,4.6,1.5,6.5,2.4,3.4,4.2,4.4c1.8,1.1,3.9,1.6,6.3,1.6s3.9-.4,5.6-1.1c1.7-.7,3.2-1.8,4.4-3.3l6.2,6.3c-2,2.3-4.4,4.1-7.2,5.3-2.8,1.2-5.8,1.9-9.1,1.9h0Z"/>
    <path class="st1" d="M538,451.3c-4,0-7.7-1-11-2.9-3.3-1.9-5.9-4.5-7.8-7.9s-2.9-7-2.9-11,1-7.7,2.9-10.9c1.9-3.2,4.5-5.8,7.8-7.8s7-2.9,11-2.9,7.8,1,11.1,2.9c3.3,1.9,5.9,4.5,7.8,7.8s2.9,6.9,2.9,11-1,7.7-2.9,11c-1.9,3.3-4.5,5.9-7.8,7.9-3.3,1.9-7,2.9-11.1,2.9ZM538,442.1c2.4,0,4.5-.5,6.3-1.6,1.8-1.1,3.2-2.6,4.2-4.5s1.5-4.1,1.5-6.5-.5-4.6-1.6-6.4-2.5-3.3-4.2-4.4-3.9-1.6-6.2-1.6-4.4.5-6.2,1.6c-1.8,1.1-3.2,2.5-4.2,4.4-1,1.9-1.5,4-1.5,6.4s.5,4.6,1.5,6.5c1,1.9,2.4,3.4,4.2,4.5s3.9,1.6,6.2,1.6h0Z"/>
    <path class="st1" d="M586.8,451.3c-4,0-7.7-1-11-2.9-3.3-1.9-5.9-4.5-7.8-7.9-1.9-3.3-2.9-7-2.9-11s1-7.7,2.9-10.9c1.9-3.2,4.5-5.8,7.8-7.8s7-2.9,11-2.9,7.8,1,11.1,2.9c3.3,1.9,5.9,4.5,7.9,7.8,1.9,3.3,2.9,6.9,2.9,11s-1,7.7-2.9,11-4.6,5.9-7.9,7.9c-3.3,1.9-7,2.9-11.1,2.9ZM586.8,442.1c2.4,0,4.5-.5,6.3-1.6,1.8-1.1,3.2-2.6,4.2-4.5s1.5-4.1,1.5-6.5-.5-4.6-1.6-6.4-2.5-3.3-4.2-4.4-3.9-1.6-6.2-1.6-4.4.5-6.2,1.6-3.2,2.5-4.2,4.4c-1,1.9-1.5,4-1.5,6.4s.5,4.6,1.5,6.5,2.4,3.4,4.2,4.5c1.8,1.1,3.9,1.6,6.2,1.6h0Z"/>
    <path class="st1" d="M616.6,467.8v-59h9.5v11.2l-1.7,10.2,1.7,10.1v27.6h-9.5ZM638.9,451.3c-3.2,0-6-.7-8.5-2-2.5-1.4-4.5-3.2-5.9-5.6-1.4-2.4-2.1-5.1-2.1-8.1v-12c0-3,.7-5.7,2.2-8.1s3.4-4.2,5.9-5.6c2.5-1.4,5.3-2,8.4-2s7.2,1,10.2,2.9,5.4,4.5,7.2,7.8c1.8,3.3,2.7,7,2.7,11.1s-.9,7.7-2.7,11c-1.8,3.3-4.2,5.9-7.2,7.8-3,1.9-6.4,2.9-10.2,2.9h0ZM637.4,442.3c2.3,0,4.3-.5,6.1-1.6s3.2-2.6,4.2-4.5c1-1.9,1.5-4.1,1.5-6.6s-.5-4.7-1.5-6.6c-1-1.9-2.4-3.4-4.2-4.5-1.8-1.1-3.8-1.6-6.1-1.6s-4.4.5-6.2,1.6c-1.8,1.1-3.2,2.6-4.2,4.5-1,1.9-1.5,4.1-1.5,6.6s.5,4.7,1.5,6.6c1,1.9,2.4,3.4,4.2,4.5s3.8,1.6,6.2,1.6Z"/>
  </g>
</svg>