<svg xmlns="http://www.w3.org/2000/svg" viewbox="0 0 1681 929" width="1681" height="929"><defs></defs><g transform="matrix(1,0,0,1,406.922000115,1547.355705124)">
<g>
	<path d="M-406.922000,-1547.355705C-406.922000,-1547.355705 1274.731021,-1547.355705 1274.731021,-1547.355705 C1274.731021,-1547.355705 1274.731021,-617.447919 1274.731021,-617.447919 C1274.731021,-617.447919 -406.922000,-617.447919 -406.922000,-617.447919 C-406.922000,-617.447919 -406.922000,-1547.355705 -406.922000,-1547.355705 Z" transform="matrix(1,0,0,1,0,0)" fill="#ffffff" fill-opacity="0"/>
	<g transform="matrix(29.126091232,0,0,29.126091232,6276.804576515,12242.428458873)">
		<path d="M50.531570,22.835411C50.531570,22.835411 50.531570,27.237564 50.531570,27.237564 C50.531570,27.509624 50.595244,27.718011 50.722591,27.862722 C50.855727,28.001647 51.046748,28.071110 51.295654,28.071110 C51.457733,28.071110 51.599551,28.045063 51.721107,27.992970 C51.848455,27.935083 51.961330,27.854043 52.059734,27.749851 C52.059734,27.749851 52.224709,28.105844 52.224709,28.105844 C52.114726,28.215826 51.975802,28.305548 51.807938,28.375010 C51.640071,28.438683 51.451944,28.470520 51.243557,28.470520 C51.017806,28.470520 50.818103,28.430001 50.644447,28.348963 C50.470792,28.262135 50.334763,28.131894 50.236359,27.958239 C50.143743,27.784583 50.097435,27.564620 50.097435,27.298349 C50.097435,27.298349 50.097435,22.956974 50.097435,22.956974 C50.097435,22.956974 50.531570,22.835411 50.531570,22.835411 ZM52.155247,24.042313C52.155247,24.042313 52.155247,24.415670 52.155247,24.415670 C52.155247,24.415670 49.229160,24.415670 49.229160,24.415670 C49.229160,24.415670 49.229160,24.042313 49.229160,24.042313 C49.229160,24.042313 52.155247,24.042313 52.155247,24.042313 ZM55.741230,25.527063C55.741230,25.150811 55.639931,24.858492 55.437332,24.650106 C55.234736,24.441720 54.945311,24.337526 54.569057,24.337526 C54.239114,24.337526 53.955477,24.409883 53.718147,24.554596 C53.480820,24.693520 53.304270,24.927954 53.188499,25.257898 C53.188499,25.257898 52.832508,25.032146 52.832508,25.032146 C52.959855,24.690624 53.171136,24.427247 53.466351,24.242016 C53.767351,24.050996 54.137814,23.955486 54.577740,23.955486 C54.896107,23.955486 55.173955,24.013371 55.411285,24.129141 C55.654401,24.239122 55.842527,24.404095 55.975662,24.624058 C56.108798,24.844021 56.175365,25.118975 56.175365,25.448919 C56.175365,25.448919 56.175365,27.619606 56.175365,27.619606 C56.175365,27.926397 56.314290,28.079792 56.592140,28.079792 C56.713697,28.079792 56.817889,28.059532 56.904716,28.019012 C56.904716,28.019012 56.878670,28.366322 56.878670,28.366322 C56.780266,28.418415 56.652918,28.444462 56.496628,28.444462 C56.363492,28.444462 56.239039,28.418415 56.123268,28.366322 C56.007500,28.314228 55.911990,28.227401 55.836739,28.105841 C55.767275,27.984282 55.732544,27.819309 55.732544,27.610924 C55.732544,27.610924 55.732544,27.376490 55.732544,27.376490 C55.732544,27.376490 55.854103,27.367788 55.854103,27.367788 C55.802010,27.616693 55.686240,27.825080 55.506794,27.992947 C55.333139,28.155025 55.130541,28.276584 54.899002,28.357622 C54.667460,28.432872 54.435919,28.470497 54.204380,28.470497 C53.932321,28.470497 53.689204,28.427084 53.475029,28.340258 C53.260857,28.253430 53.092991,28.128977 52.971432,27.966900 C52.849873,27.799033 52.789093,27.593541 52.789093,27.350424 C52.789093,27.026267 52.896180,26.765785 53.110355,26.568975 C53.330318,26.366378 53.637109,26.227455 54.030727,26.152205 C54.030727,26.152205 55.828056,25.796211 55.828056,25.796211 C55.828056,25.796211 55.828056,26.160887 55.828056,26.160887 C55.828056,26.160887 54.247795,26.473467 54.247795,26.473467 C53.906273,26.542929 53.651578,26.644227 53.483711,26.777363 C53.315847,26.910498 53.231915,27.089942 53.231915,27.315693 C53.231915,27.558810 53.321636,27.749830 53.501080,27.888754 C53.680523,28.021889 53.935216,28.088457 54.265160,28.088457 C54.433027,28.088457 54.603788,28.065304 54.777443,28.018997 C54.951098,27.972691 55.110282,27.900335 55.254993,27.801929 C55.405496,27.697736 55.524161,27.570389 55.610989,27.419888 C55.697814,27.263598 55.741226,27.075472 55.741226,26.855509 C55.741226,26.855509 55.741230,25.527063 55.741230,25.527063 ZM57.799034,30.207066C57.799034,30.207066 57.799034,24.042313 57.799034,24.042313 C57.799034,24.042313 58.189758,24.042313 58.189758,24.042313 C58.189758,24.042313 58.224487,25.249214 58.224487,25.249214 C58.224487,25.249214 58.163708,25.179754 58.163708,25.179754 C58.238959,24.930849 58.354729,24.713781 58.511017,24.528549 C58.673096,24.343318 58.869905,24.201499 59.101444,24.103094 C59.332984,24.004690 59.584784,23.955488 59.856846,23.955488 C60.227309,23.955488 60.560148,24.045210 60.855362,24.224653 C61.150574,24.404097 61.385007,24.661685 61.558662,24.997417 C61.732318,25.333150 61.819145,25.738345 61.819145,26.213003 C61.819145,26.681871 61.732318,27.087067 61.558662,27.428589 C61.385007,27.764320 61.147680,28.021908 60.846680,28.201351 C60.551465,28.380795 60.215731,28.470516 59.839478,28.470516 C59.440071,28.470516 59.092762,28.366323 58.797550,28.157938 C58.502336,27.943764 58.296843,27.657234 58.181072,27.298346 C58.181072,27.298346 58.233173,27.220205 58.233173,27.220205 C58.233173,27.220205 58.233173,30.207071 58.233173,30.207071 C58.233173,30.207071 57.799034,30.207066 57.799034,30.207066 ZM59.787384,28.088474C60.279406,28.088474 60.667236,27.920608 60.950874,27.584875 C61.240298,27.249142 61.385010,26.791851 61.385010,26.213001 C61.385010,25.634151 61.243192,25.176860 60.959557,24.841125 C60.675919,24.505393 60.290983,24.337526 59.804749,24.337526 C59.497958,24.337526 59.225899,24.415671 58.988571,24.571960 C58.757032,24.722462 58.571800,24.939531 58.432877,25.223167 C58.299741,25.501015 58.233173,25.830959 58.233173,26.213001 C58.233173,26.589252 58.299741,26.919196 58.432877,27.202833 C58.566012,27.486470 58.748350,27.706433 58.979889,27.862722 C59.217216,28.013224 59.486382,28.088474 59.787384,28.088474 C59.787384,28.088474 59.787384,28.088474 59.787384,28.088474 Z" transform="matrix(3.6267519,0,0,3.938738585,-397.350372314,-561.75982666)" fill="#e6c384"/>
		<path d="M-218.760836,-466.328163C-222.844881,-466.222409 -222.844881,-461.781344 -222.844881,-461.781344 " transform="" fill="none" stroke="#e6c384" stroke-width="1.47"/>
	</g>
	<g transform="matrix(1,0,0,1,-1.295753676,-23.457105365)">
		<path d="M-0.500000,-0.250000C-0.500000,-0.387946 -0.387946,-0.500000 -0.250000,-0.500000 L 0.250000,-0.500000 C0.387946,-0.500000 0.500000,-0.387946 0.500000,-0.250000 L 0.500000,0.250000 C0.500000,0.387946 0.387946,0.500000 0.250000,0.500000 L -0.250000,0.500000 C-0.387946,0.500000 -0.500000,0.387946 -0.500000,0.250000 L -0.500000,-0.250000 Z" transform="matrix(47,0,0,47,-212.5,-1113.5)" fill="#7e9cd8"/>
		<path d="M-1.500000,-0.250000C-1.500000,-0.387946 -1.387946,-0.500000 -1.250000,-0.500000 L 1.250000,-0.500000 C1.387946,-0.500000 1.500000,-0.387946 1.500000,-0.250000 L 1.500000,0.250000 C1.500000,0.387946 1.387946,0.500000 1.250000,0.500000 L -1.250000,0.500000 C-1.387946,0.500000 -1.500000,0.387946 -1.500000,0.250000 L -1.500000,-0.250000 Z" transform="matrix(47,0,0,47,-212.5,-1019.5)" fill="#7e9cd8"/>
		<path d="M-2.500000,-0.250000C-2.500000,-0.387946 -2.387946,-0.500000 -2.250000,-0.500000 L 2.250000,-0.500000 C2.387946,-0.500000 2.500000,-0.387946 2.500000,-0.250000 L 2.500000,0.250000 C2.500000,0.387946 2.387946,0.500000 2.250000,0.500000 L -2.250000,0.500000 C-2.387946,0.500000 -2.500000,0.387946 -2.500000,0.250000 L -2.500000,-0.250000 Z" transform="matrix(47,0,0,47,-212.5,-925.5)" fill="#7e9cd8"/>
		<path d="M-1.500000,-0.250000C-1.500000,-0.387946 -1.387946,-0.500000 -1.250000,-0.500000 L 1.250000,-0.500000 C1.387946,-0.500000 1.500000,-0.387946 1.500000,-0.250000 L 1.500000,0.250000 C1.500000,0.387946 1.387946,0.500000 1.250000,0.500000 L -1.250000,0.500000 C-1.387946,0.500000 -1.500000,0.387946 -1.500000,0.250000 L -1.500000,-0.250000 Z" transform="matrix(47,0,0,47,-212.5,-831.5)" fill="#7e9cd8"/>
	</g>
</g></g></svg>