<svg width="143" height="40" viewBox="0 0 143 40" fill="none" xmlns="http://www.w3.org/2000/svg">
<path d="M44.3602 9.07852C42.0351 7.4363 39.2758 6.51407 36.4277 6.42667V0C36.4277 0 29.3047 2.12444 24.8936 8.83778C24.918 8.86148 24.9425 8.88519 24.9669 8.90889C27.6862 11.62 29.2136 15.2978 29.2136 19.1326C29.2136 24.1178 27.7254 28.0348 25.6891 31.0607C27.0077 32.3859 28.5773 33.4511 30.3173 34.1874C32.9402 35.2978 35.8328 35.6126 38.6343 35.0926C41.4358 34.5726 44.021 33.2415 46.0684 31.2644C48.1151 29.2874 49.5328 26.7533 50.144 23.9778C50.7551 21.2022 50.5321 18.3089 49.5039 15.6593C48.4751 13.0096 46.6862 10.7207 44.3602 9.07852Z" fill="#DE54C0"/>
<path d="M60.7662 18.0422H63.2321L63.2758 14.1793L68.1728 5.93852H65.3395L61.9988 11.6504L58.6847 5.93852H55.9654L60.7662 14.2141V18.0422Z" fill="#311920"/>
<path d="M66.6714 11.8407C66.2995 12.743 66.2069 13.7363 66.4054 14.6911C66.604 15.6467 67.084 16.5207 67.7847 17.2022C68.4854 17.883 69.3743 18.34 70.3365 18.5133C71.2988 18.6867 72.2921 18.5689 73.1877 18.1756C74.0832 17.7822 74.8395 17.1304 75.361 16.3052C75.8825 15.4793 76.144 14.517 76.1128 13.5422C76.1203 12.9081 75.9988 12.2785 75.7551 11.6926C75.5114 11.1067 75.1506 10.5763 74.6951 10.1333C74.2395 9.69037 73.6988 9.34445 73.1047 9.1163C72.5114 8.88815 71.8773 8.78296 71.2417 8.80667C70.2632 8.8 69.3054 9.08593 68.4914 9.62593C67.6773 10.1659 67.0432 10.9385 66.6714 11.8407ZM68.678 12.4052C68.7751 12.0341 68.9536 11.6881 69.1995 11.3933C69.4454 11.0978 69.7536 10.8607 70.1025 10.6978C70.4506 10.5348 70.8314 10.4504 71.2158 10.4504C71.6003 10.4504 71.981 10.5348 72.3291 10.6978C72.678 10.8607 72.9862 11.0985 73.2321 11.3933C73.478 11.6881 73.6565 12.0341 73.7536 12.4052C73.8506 12.7763 73.8647 13.1644 73.7951 13.5422C73.8647 13.92 73.8506 14.3081 73.7536 14.6793C73.6565 15.0504 73.478 15.3963 73.2321 15.6911C72.9862 15.9859 72.678 16.2237 72.3291 16.3867C71.981 16.5496 71.6003 16.6341 71.2158 16.6341C70.8314 16.6341 70.4506 16.5496 70.1025 16.3867C69.7536 16.2237 69.4454 15.9859 69.1995 15.6911C68.9536 15.3963 68.7751 15.0504 68.678 14.6793C68.581 14.3081 68.5662 13.92 68.6366 13.5422C68.5662 13.1644 68.581 12.7763 68.678 12.4052Z" fill="#311920"/>
<path d="M79.5032 18.0622C79.9647 18.2481 80.4603 18.3333 80.9573 18.3126C81.4795 18.3348 82.001 18.2496 82.4899 18.0637C82.9788 17.8778 83.424 17.5948 83.7995 17.2311V18.0422H86.1862V9.02519H83.7995V13.0193C83.7995 15.26 82.9069 16.1326 81.5514 16.1326C81.2869 16.1274 81.0269 16.0667 80.7877 15.9548C80.5484 15.8422 80.3351 15.6807 80.1625 15.4807C79.9899 15.2807 79.8617 15.0467 79.7862 14.7941C79.7106 14.5415 79.6899 14.2756 79.724 14.0141V9.02519H77.3277V14.5193C77.284 15.0133 77.3462 15.5119 77.5106 15.98C77.6751 16.4481 77.938 16.8763 78.2817 17.2356C78.6254 17.5948 79.041 17.8763 79.5032 18.0622Z" fill="#311920"/>
<path d="M89.0373 14.72C89.0373 17.1963 90.4454 18.3126 92.5877 18.3126C93.4173 18.3074 94.2299 18.0785 94.9395 17.6496L94.2484 15.6615C93.7854 15.9148 93.2721 16.0637 92.7447 16.0978C91.9484 16.0978 91.424 15.6267 91.424 14.537V10.9793H94.3795V9.02593H91.424V6.2963H89.0365V9.02593H87.0951V10.9793H89.0365L89.0373 14.72Z" fill="#311920"/>
<path d="M101.265 11.1452C101.505 11.2563 101.718 11.417 101.891 11.6163C102.063 11.8156 102.191 12.0489 102.267 12.3015C102.342 12.5541 102.363 12.8193 102.329 13.0807V18.0422H104.691V12.5481C104.74 12.0541 104.682 11.5556 104.522 11.0852C104.362 10.6148 104.103 10.1844 103.762 9.82222C103.422 9.46 103.008 9.17407 102.548 8.9837C102.089 8.79333 101.594 8.7037 101.096 8.71926C100.571 8.7037 100.047 8.79556 99.5588 8.98889C99.0699 9.18222 98.6262 9.47333 98.2543 9.84444V5.03185H95.8669V18.0681H98.2543V14.0741C98.2543 11.8415 99.1462 10.9696 100.502 10.9696C100.766 10.9733 101.026 11.0341 101.265 11.1452Z" fill="#311920"/>
<path d="M115.394 15.8185H109.124V5.93852H106.666V18.0422H115.411L115.394 15.8185Z" fill="#311920"/>
<path d="M119.557 9.02519H117.195V18.0422H119.557V9.02519Z" fill="#311920"/>
<path d="M118.367 7.78741C118.752 7.78741 119.122 7.63482 119.394 7.3637C119.665 7.09259 119.819 6.7237 119.819 6.34C119.819 5.9563 119.666 5.58815 119.394 5.3163C119.122 5.04519 118.752 4.89259 118.367 4.89259C117.982 4.89259 117.613 5.04519 117.341 5.3163C117.068 5.58741 116.915 5.9563 116.915 6.34C116.915 6.7237 117.068 7.09185 117.341 7.3637C117.613 7.63556 117.982 7.78741 118.367 7.78741Z" fill="#311920"/>
<path d="M124.217 14.0748C124.217 11.8422 125.109 10.9704 126.465 10.9704C126.73 10.9748 126.99 11.0341 127.23 11.1452C127.469 11.2563 127.682 11.417 127.856 11.6163C128.029 11.8156 128.159 12.0489 128.235 12.3015C128.312 12.5541 128.334 12.8193 128.301 13.0807V18.0422H130.723V12.5481C130.773 12.0519 130.714 11.5511 130.553 11.0785C130.391 10.6067 130.13 10.1748 129.788 9.81185C129.444 9.44889 129.028 9.1637 128.564 8.97556C128.101 8.78741 127.603 8.7 127.103 8.72C126.57 8.69852 126.039 8.78815 125.542 8.98148C125.045 9.17482 124.594 9.46889 124.217 9.84519V9.02519H121.83V18.0681H124.217V14.0748Z" fill="#311920"/>
<path d="M137.378 13.4207L141.751 9.06074H138.742L135.498 12.2081H135.061V5.03185H132.674V18.0422H135.051V14.5541H135.472L139.022 18.0422L142.222 18.1119L137.378 13.4207Z" fill="#311920"/>
<path d="M63.3195 27.0682L60.6958 26.5452C59.7514 26.3711 59.4803 25.9348 59.4803 25.3156C59.4803 24.5044 60.2232 23.8156 61.4565 23.8156C62.0173 23.7852 62.5699 23.96 63.0114 24.3067C63.4521 24.6533 63.7514 25.1489 63.8528 25.6993L66.3099 25.1933C65.8462 23.0393 63.9751 21.7052 61.518 21.6874C58.6499 21.6874 56.901 23.2044 56.901 25.3763C56.901 27.757 58.641 28.5504 60.0928 28.8644L62.7077 29.3704C63.7921 29.5793 64.1158 29.9985 64.1158 30.6874C64.1158 31.5504 63.3728 32.2222 61.9647 32.2222C61.3462 32.2911 60.7247 32.1274 60.2217 31.763C59.7188 31.3985 59.3706 30.8593 59.2454 30.2511L56.6217 30.7741C56.9277 33.1985 59.1573 34.3756 61.6936 34.3756C64.5706 34.3756 66.5121 32.9104 66.5121 30.5563C66.5121 28.6637 65.2958 27.4867 63.3195 27.0682Z" fill="#311920"/>
<path d="M70.5743 27.7356C70.8128 27.4889 71.1003 27.2948 71.4188 27.1659C71.7373 27.037 72.0795 26.977 72.4225 26.9889C72.9477 26.9644 73.464 27.1333 73.8728 27.4622C74.2817 27.7919 74.5565 28.2593 74.6432 28.7763L76.9521 28.1222C76.6832 27.2778 76.1847 26.5237 75.5114 25.9444C74.8388 25.3652 74.0173 24.9844 73.1403 24.843C72.2625 24.7022 71.3632 24.8067 70.5417 25.1452C69.7202 25.4837 69.0091 26.043 68.4877 26.7607C67.9662 27.4785 67.6551 28.3267 67.5884 29.2104C67.5217 30.0941 67.7025 30.9793 68.1099 31.7667C68.518 32.5541 69.1365 33.2133 69.898 33.6704C70.6595 34.1274 71.5328 34.3652 72.4217 34.357C73.4491 34.3867 74.4558 34.0681 75.2788 33.4533C76.101 32.8393 76.6914 31.9644 76.9514 30.9733L74.7388 30.4156C74.6247 30.9385 74.3306 31.4059 73.9069 31.7356C73.484 32.0652 72.958 32.237 72.421 32.2207C72.0765 32.237 71.7328 32.1793 71.4121 32.0526C71.0914 31.9252 70.8025 31.7319 70.5632 31.4837C70.324 31.2363 70.1403 30.94 70.0254 30.6163C69.9099 30.2926 69.8654 29.9474 69.8943 29.6044C69.8699 29.263 69.9173 28.92 70.0343 28.5978C70.1514 28.2756 70.3351 27.9815 70.5736 27.7348L70.5743 27.7356Z" fill="#311920"/>
<path d="M87.1121 27.7326C86.8677 27.1474 86.5077 26.6185 86.0514 26.1763C85.5958 25.7348 85.0551 25.3896 84.4625 25.1622C83.8699 24.9348 83.2365 24.8296 82.601 24.8533C81.6225 24.8467 80.6647 25.1326 79.8499 25.6733C79.0351 26.2141 78.401 26.9859 78.0306 27.8889C77.6595 28.7919 77.5669 29.7852 77.7662 30.7407C77.9654 31.6963 78.4469 32.5704 79.1484 33.2511C79.8499 33.9319 80.7395 34.3874 81.7032 34.56C82.6662 34.7326 83.6595 34.6133 84.5543 34.2193C85.4499 33.8244 86.2062 33.1719 86.7262 32.3452C87.2462 31.5185 87.5069 30.5556 87.4728 29.58C87.4803 28.9467 87.3566 28.3185 87.1129 27.7333L87.1121 27.7326ZM84.9832 30.5859C84.8595 30.9067 84.6743 31.2 84.4373 31.4496C84.1995 31.6993 83.9158 31.8993 83.601 32.0393C83.2854 32.1793 82.9462 32.2563 82.6017 32.2652C82.0832 32.2793 81.5721 32.1385 81.1336 31.863C80.6943 31.5867 80.3477 31.1874 80.1365 30.7148C79.9254 30.2422 79.8595 29.7178 79.9469 29.2081C80.0343 28.6985 80.2721 28.2259 80.6291 27.8504C80.9862 27.4748 81.4462 27.2133 81.9521 27.0993C82.458 26.9844 82.9869 27.0222 83.4714 27.2074C83.9551 27.3919 84.3743 27.7163 84.6736 28.1385C84.9728 28.5607 85.1403 29.0622 85.1543 29.5793C85.164 29.923 85.1047 30.2652 84.9817 30.5859H84.9832Z" fill="#311920"/>
<path d="M93.3136 32.1519C92.5099 32.1519 91.9847 31.6807 91.9847 30.5911V27.0333H94.9402V25.0622H91.9847V22.3326H89.5973V25.0622H87.6558V27.0333H89.5973V30.757C89.5973 33.2333 91.0054 34.3585 93.1469 34.3585C93.9773 34.3504 94.7899 34.1178 95.4995 33.6874L94.8173 31.7163C94.3536 31.9689 93.8402 32.1178 93.3128 32.1526L93.3136 32.1519Z" fill="#311920"/>
<path d="M98.8136 21.0681H96.4269V34.0793H98.8136V21.0681Z" fill="#311920"/>
<path d="M107.681 25.0622V25.7859C106.991 25.2385 106.159 24.9 105.282 24.8126C104.405 24.7252 103.522 24.8911 102.737 25.2919C101.953 25.6926 101.3 26.3096 100.859 27.0704C100.417 27.8311 100.205 28.7022 100.248 29.58C100.22 30.1859 100.314 30.7904 100.524 31.3593C100.734 31.9282 101.054 32.4504 101.468 32.8948C101.881 33.3393 102.378 33.6978 102.932 33.9489C103.485 34.2 104.082 34.3393 104.691 34.3585C105.777 34.3933 106.841 34.0481 107.699 33.3815V34.0793H110.086L110.069 25.0622H107.681ZM107.522 30.6044C107.396 30.9311 107.204 31.2289 106.96 31.48C106.714 31.7311 106.421 31.9311 106.098 32.0674C105.774 32.2037 105.426 32.2741 105.075 32.2741C104.726 32.2807 104.379 32.2148 104.057 32.08C103.735 31.9452 103.445 31.7437 103.205 31.4896C102.966 31.2356 102.784 30.9341 102.669 30.6052C102.554 30.2763 102.51 29.9267 102.54 29.5793C102.511 29.2319 102.557 28.8822 102.671 28.5533C102.786 28.2244 102.969 27.923 103.208 27.6681C103.447 27.4141 103.737 27.2119 104.058 27.0756C104.38 26.9385 104.726 26.8711 105.075 26.8756C105.428 26.8756 105.776 26.9459 106.1 27.083C106.425 27.22 106.718 27.42 106.962 27.6726C107.207 27.9244 107.399 28.2237 107.525 28.5511C107.651 28.8785 107.711 29.2282 107.699 29.5793C107.71 29.9296 107.65 30.2778 107.522 30.6044Z" fill="#311920"/>
<path d="M120.18 25.883C119.841 25.5244 119.428 25.2422 118.971 25.0541C118.514 24.8659 118.022 24.777 117.528 24.7926C117.005 24.7726 116.483 24.8585 115.994 25.0459C115.505 25.2333 115.06 25.5178 114.685 25.8822V25.0622H112.299V34.0793H114.685V30.0852C114.685 27.8526 115.578 26.9807 116.934 26.9807C117.195 26.9904 117.451 27.0548 117.686 27.1696C117.922 27.2837 118.13 27.4459 118.299 27.6459C118.468 27.8452 118.593 28.0778 118.667 28.3281C118.74 28.5785 118.76 28.8415 118.725 29.1V34.0793H121.122V28.5852C121.165 28.0941 121.105 27.5993 120.942 27.1333C120.78 26.6674 120.52 26.2415 120.18 25.883Z" fill="#311920"/>
<path d="M129.761 25.7859C129.073 25.237 128.24 24.8978 127.363 24.8096C126.486 24.7215 125.603 24.8874 124.819 25.2882C124.034 25.6889 123.382 26.3067 122.942 27.0682C122.502 27.8296 122.291 28.7015 122.337 29.5785C122.31 30.1837 122.403 30.7874 122.612 31.3563C122.822 31.9244 123.141 32.4467 123.554 32.8911C123.966 33.3356 124.462 33.6941 125.015 33.9459C125.567 34.1978 126.164 34.3378 126.771 34.3578C127.851 34.3889 128.909 34.043 129.762 33.3807V34.0785H132.158V21.0674H129.762V25.7852L129.761 25.7859ZM129.589 30.5933C129.465 30.9163 129.279 31.2119 129.04 31.4622C128.8 31.7133 128.514 31.9141 128.197 32.0533C127.88 32.1926 127.537 32.2681 127.191 32.2748C126.842 32.2815 126.494 32.2156 126.172 32.0807C125.851 31.9459 125.56 31.7444 125.321 31.4904C125.082 31.2363 124.9 30.9348 124.785 30.6059C124.669 30.277 124.625 29.9274 124.655 29.58C124.625 29.2319 124.669 28.8822 124.785 28.5526C124.899 28.223 125.082 27.9207 125.321 27.6659C125.56 27.4111 125.85 27.2096 126.172 27.0733C126.494 26.937 126.841 26.8704 127.191 26.8763C127.538 26.883 127.881 26.9585 128.2 27.0985C128.517 27.2385 128.804 27.44 129.043 27.6919C129.282 27.943 129.469 28.2393 129.592 28.5637C129.716 28.8881 129.774 29.2326 129.762 29.5785C129.772 29.9244 129.714 30.2689 129.59 30.5919L129.589 30.5933Z" fill="#311920"/>
<path d="M21.4832 20.8593C21.4832 15.7807 22.9158 11.8481 24.8936 8.83778C22.1817 6.17111 18.5262 4.67407 14.7143 4.67407C10.8714 4.61481 7.16247 6.08074 4.40321 8.74889C1.64469 11.417 0.0609834 15.0689 0.00172418 18.9015C-0.0575351 22.7341 1.41284 26.4326 4.08839 29.1837C6.76395 31.9356 10.4262 33.5141 14.2691 33.5733V40C14.2691 40 21.2706 37.6259 25.6891 31.0607C25.0202 30.3882 24.4151 29.6489 23.8862 28.8511C22.3151 26.4807 21.4795 23.7007 21.4832 20.8593Z" fill="#1650ED"/>
<path d="M24.9669 8.90889C24.9425 8.88519 24.918 8.86148 24.8936 8.83778C22.9158 11.8481 21.4832 15.7807 21.4832 20.8593C21.4795 23.7007 22.3151 26.4807 23.8862 28.8511C24.4151 29.6489 25.0202 30.3882 25.6891 31.0607C27.7254 28.0348 29.2136 24.1178 29.2136 19.1326C29.2136 15.2978 27.6862 11.62 24.9669 8.90889Z" fill="#131AB2"/>
</svg>
